<svg width="300" height="300" viewBox="0 0 300 300" fill="none" xmlns="http://www.w3.org/2000/svg">
<g clip-path="url(#clip0_496_18)">
<rect width="300" height="300" rx="64" fill="#171717"/>
<path d="M198.801 203.443C130.856 201.881 154.947 106.067 85.2019 109.562C84.827 109.575 84.4709 109.729 84.2049 109.993L70.4254 123.764C70.2206 123.972 70.082 124.237 70.0267 124.524C69.9715 124.811 70.0022 125.108 70.1149 125.378C70.2277 125.648 70.4175 125.878 70.6606 126.041C70.9037 126.203 71.1894 126.291 71.4819 126.292C138.311 125.816 114.368 221.466 184.887 220.277C185.28 220.271 185.654 220.111 185.929 219.831L199.813 205.971C200.015 205.765 200.153 205.504 200.21 205.221C200.266 204.938 200.24 204.645 200.132 204.377C200.025 204.109 199.842 203.878 199.605 203.712C199.369 203.546 199.089 203.452 198.801 203.443Z" fill="#F5F5F5"/>
<path d="M228.562 173.716C160.602 172.228 184.694 76.34 114.948 79.8198C114.573 79.8451 114.22 80.0033 113.951 80.266L100.187 94.0217C99.9768 94.2297 99.8337 94.4954 99.7755 94.785C99.7174 95.0746 99.7469 95.375 99.8602 95.6478C99.9736 95.9206 100.166 96.1535 100.412 96.3168C100.658 96.48 100.948 96.5663 101.243 96.5646C168.087 96.0887 144.129 191.739 214.663 190.55C215.053 190.531 215.423 190.372 215.705 190.103L229.574 176.244C229.776 176.038 229.914 175.777 229.971 175.494C230.028 175.211 230.001 174.918 229.894 174.65C229.786 174.381 229.603 174.15 229.367 173.985C229.13 173.819 228.851 173.725 228.562 173.716Z" fill="#F5F5F5"/>
<path d="M131.004 66.8225C165.542 66.5846 175.84 91.9843 187.462 116.447C187.564 116.662 187.716 116.85 187.906 116.994C188.095 117.138 188.317 117.235 188.552 117.276C188.786 117.317 189.027 117.3 189.255 117.229C189.482 117.157 189.689 117.032 189.857 116.864L204.455 102.26C204.672 102.045 204.816 101.768 204.869 101.467C204.923 101.166 204.882 100.857 204.753 100.58C192.595 75.1057 182.238 48.2189 144.695 50.0926C144.318 50.1096 143.961 50.2691 143.698 50.5388L129.933 64.2945C129.727 64.5041 129.588 64.77 129.534 65.0584C129.479 65.3469 129.511 65.6451 129.625 65.9154C129.74 66.1858 129.932 66.4162 130.178 66.5776C130.423 66.739 130.711 66.8243 131.004 66.8225Z" fill="#F5F5F5"/>
<path d="M169.054 233.17C134.71 232.382 123.877 207.517 112.508 183.56C112.403 183.355 112.253 183.178 112.068 183.041C111.884 182.904 111.67 182.812 111.443 182.771C111.217 182.731 110.984 182.744 110.764 182.808C110.543 182.873 110.34 182.988 110.172 183.144L95.5737 197.732C95.3543 197.949 95.2078 198.229 95.1545 198.533C95.1012 198.836 95.1437 199.149 95.2761 199.428C107.091 224.337 118.014 250.614 155.185 249.989C155.578 249.983 155.952 249.823 156.227 249.543L170.096 235.683C170.295 235.475 170.429 235.213 170.482 234.93C170.535 234.646 170.504 234.354 170.394 234.088C170.284 233.821 170.098 233.593 169.86 233.43C169.623 233.267 169.343 233.177 169.054 233.17Z" fill="#F5F5F5"/>
<rect width="180.575" height="63.3811" transform="translate(173.079 300.557) rotate(-45)" fill="#5E5CDE"/>
<path d="M236.677 288.847L234.29 291.234L226.293 274.546L229.053 271.786L245.747 279.777L243.36 282.164L230.253 275.649L230.156 275.746L236.677 288.847ZM231.916 283.93L238.425 277.421L240.221 279.217L233.712 285.726L231.916 283.93ZM247.372 278.152L235.03 265.81L237.266 263.574L247.734 274.042L253.17 268.606L255.044 270.48L247.372 278.152ZM256.985 268.539L244.642 256.197L249.271 251.569C250.219 250.621 251.191 250.002 252.188 249.713C253.188 249.419 254.162 249.417 255.11 249.707C256.059 249.988 256.924 250.52 257.708 251.304C258.499 252.095 259.036 252.965 259.317 253.913C259.598 254.861 259.59 255.838 259.293 256.842C258.991 257.842 258.365 258.819 257.413 259.771L254.345 262.838L252.507 261L255.273 258.234C255.828 257.68 256.185 257.129 256.346 256.583C256.507 256.037 256.503 255.51 256.334 255.004C256.169 254.494 255.868 254.02 255.43 253.582C254.992 253.144 254.52 252.845 254.014 252.684C253.511 252.519 252.989 252.523 252.447 252.696C251.904 252.861 251.354 253.222 250.795 253.781L248.746 255.83L259.22 266.304L256.985 268.539ZM267.906 257.618L255.564 245.276L257.8 243.04L263.025 248.265L268.744 242.546L263.519 237.321L265.761 235.079L278.103 247.421L275.861 249.663L270.618 244.42L264.899 250.139L270.142 255.382L267.906 257.618ZM282.12 243.405L279.733 245.791L271.736 229.104L274.496 226.344L291.189 234.335L288.803 236.721L275.695 230.207L275.599 230.303L282.12 243.405ZM277.359 238.487L283.867 231.978L285.663 233.774L279.155 240.283L277.359 238.487Z" fill="white"/>
</g>
<defs>
<clipPath id="clip0_496_18">
<rect width="300" height="300" rx="64" fill="white"/>
</clipPath>
</defs>
</svg>
