<svg width="400" height="400" viewBox="0 0 400 400" fill="none" xmlns="http://www.w3.org/2000/svg">
<rect width="400" height="400" fill="#171717"/>
<path d="M261.611 267.721C175.83 265.75 206.246 144.785 118.192 149.197C117.719 149.213 117.27 149.408 116.934 149.741L99.5371 167.127C99.2785 167.39 99.1035 167.724 99.0338 168.087C98.9641 168.449 99.0028 168.824 99.1451 169.165C99.2874 169.505 99.5271 169.796 99.834 170.001C100.141 170.207 100.502 170.317 100.871 170.318C185.242 169.718 155.014 290.476 244.045 288.974C244.541 288.967 245.013 288.765 245.36 288.411L262.888 270.913C263.144 270.653 263.318 270.324 263.39 269.967C263.461 269.61 263.427 269.239 263.292 268.901C263.157 268.562 262.925 268.271 262.627 268.061C262.328 267.852 261.975 267.734 261.611 267.721Z" fill="#F5F5F5"/>
<path d="M299.184 230.191C213.385 228.313 243.801 107.254 155.747 111.648C155.274 111.679 154.828 111.879 154.488 112.211L137.111 129.577C136.846 129.84 136.665 130.175 136.592 130.541C136.518 130.907 136.555 131.286 136.699 131.63C136.842 131.975 137.084 132.269 137.395 132.475C137.706 132.681 138.071 132.79 138.445 132.788C222.835 132.187 192.588 252.946 281.638 251.444C282.129 251.42 282.596 251.22 282.953 250.881L300.462 233.383C300.717 233.122 300.892 232.794 300.963 232.436C301.035 232.079 301.001 231.708 300.866 231.37C300.73 231.032 300.499 230.74 300.201 230.531C299.902 230.321 299.549 230.203 299.184 230.191Z" fill="#F5F5F5"/>
<path d="M176.018 95.2385C219.622 94.9381 232.623 127.005 247.295 157.89C247.424 158.161 247.616 158.398 247.856 158.58C248.095 158.762 248.375 158.884 248.671 158.936C248.968 158.987 249.272 158.967 249.559 158.876C249.846 158.786 250.107 158.628 250.32 158.415L268.75 139.979C269.023 139.706 269.205 139.357 269.272 138.977C269.34 138.597 269.288 138.206 269.126 137.857C253.777 105.696 240.701 71.7513 193.302 74.1169C192.826 74.1384 192.376 74.3398 192.043 74.6802L174.665 92.0468C174.406 92.3115 174.23 92.6471 174.161 93.0112C174.092 93.3754 174.133 93.7519 174.277 94.0932C174.422 94.4345 174.664 94.7254 174.974 94.9292C175.284 95.133 175.647 95.2406 176.018 95.2385Z" fill="#F5F5F5"/>
<path d="M224.056 305.252C180.696 304.257 167.019 272.866 152.666 242.62C152.534 242.361 152.344 242.137 152.111 241.964C151.878 241.791 151.608 241.675 151.322 241.624C151.036 241.573 150.743 241.589 150.464 241.671C150.186 241.752 149.93 241.897 149.717 242.094L131.287 260.512C131.01 260.786 130.825 261.139 130.758 261.522C130.69 261.906 130.744 262.301 130.911 262.652C145.828 294.1 159.617 327.275 206.547 326.486C207.042 326.479 207.515 326.277 207.862 325.923L225.371 308.425C225.622 308.162 225.792 307.831 225.859 307.474C225.925 307.116 225.887 306.747 225.747 306.411C225.608 306.074 225.374 305.786 225.074 305.58C224.774 305.375 224.42 305.261 224.056 305.252Z" fill="#F5F5F5"/>
</svg>
