<svg width="756" height="410" viewBox="0 0 756 410" fill="none" xmlns="http://www.w3.org/2000/svg">
<path d="M414.975 197.002C401.252 192.82 376.241 192.113 376.836 172.985C376.836 143.504 423.734 146.217 432.344 169.268C432.519 169.702 432.852 170.055 433.276 170.255C433.7 170.455 434.184 170.487 434.631 170.346L454.696 163.895C454.932 163.822 455.15 163.702 455.339 163.543C455.528 163.383 455.683 163.188 455.795 162.968C455.908 162.749 455.976 162.509 455.994 162.263C456.013 162.016 455.982 161.769 455.905 161.535C444.059 127.461 389.555 121.401 365.25 141.831C346.469 156.702 346.822 193.73 369.472 206.092C378.77 212.561 395.171 215.795 406.273 218.714H406.403C471.618 239.961 393.739 288.292 371.629 243.121C371.441 242.712 371.112 242.385 370.701 242.2C370.291 242.016 369.828 241.986 369.397 242.117L348.756 248.456C348.518 248.529 348.298 248.65 348.107 248.811C347.917 248.971 347.761 249.168 347.648 249.39C347.535 249.612 347.468 249.854 347.451 250.102C347.434 250.351 347.467 250.6 347.547 250.835C359.002 282.157 405.194 289.407 432.455 277.25C473.961 258.271 457.615 203.527 414.975 197.002Z" fill="#171717"/>
<path d="M502.524 174.807H482.85C482.356 174.807 481.883 175.003 481.535 175.351C481.186 175.7 480.99 176.173 480.99 176.666L480.786 278.291C480.786 278.784 480.981 279.257 481.33 279.605C481.679 279.954 482.152 280.15 482.645 280.15H502.319C502.813 280.15 503.286 279.954 503.634 279.605C503.983 279.257 504.179 278.784 504.179 278.291L504.383 176.666C504.383 176.173 504.188 175.7 503.839 175.351C503.49 175.003 503.017 174.807 502.524 174.807Z" fill="#171717"/>
<path d="M492.575 127.275C474.5 126.774 474.519 155.326 492.575 154.88C510.576 155.121 510.613 126.978 492.575 127.275Z" fill="#171717"/>
<path d="M553.718 132.759H533.839C532.812 132.759 531.98 133.592 531.98 134.618V278.365C531.98 279.392 532.812 280.224 533.839 280.224H553.718C554.745 280.224 555.578 279.392 555.578 278.365V134.618C555.578 133.592 554.745 132.759 553.718 132.759Z" fill="#171717"/>
<path d="M674.739 277.306L634.423 219.681C634.18 219.334 634.062 218.915 634.089 218.493C634.116 218.07 634.286 217.669 634.572 217.357L670.387 177.93C670.628 177.663 670.786 177.333 670.843 176.978C670.9 176.623 670.853 176.26 670.707 175.932C670.561 175.603 670.324 175.324 670.023 175.128C669.722 174.932 669.371 174.827 669.011 174.826H645.581C645.324 174.829 645.071 174.885 644.838 174.991C644.604 175.096 644.395 175.249 644.223 175.439L608.594 214.253C608.339 214.524 608.009 214.714 607.646 214.795C607.282 214.877 606.903 214.848 606.556 214.712C606.209 214.576 605.912 214.339 605.701 214.032C605.491 213.724 605.378 213.361 605.377 212.989V134.618C605.377 134.125 605.181 133.652 604.832 133.304C604.483 132.955 604.01 132.759 603.517 132.759H583.638C583.145 132.759 582.672 132.955 582.323 133.304C581.975 133.652 581.779 134.125 581.779 134.618V278.365C581.779 278.858 581.975 279.331 582.323 279.68C582.672 280.028 583.145 280.224 583.638 280.224H603.517C604.01 280.224 604.483 280.028 604.832 279.68C605.181 279.331 605.377 278.858 605.377 278.365V250.278C605.378 249.817 605.55 249.373 605.86 249.032L616.702 237.098C616.891 236.893 617.124 236.732 617.383 236.629C617.643 236.526 617.923 236.482 618.201 236.502C618.48 236.522 618.751 236.604 618.993 236.743C619.236 236.881 619.444 237.073 619.602 237.303L648.221 279.406C648.392 279.659 648.622 279.865 648.891 280.008C649.16 280.15 649.46 280.225 649.765 280.224H673.195C673.536 280.227 673.871 280.136 674.164 279.962C674.457 279.787 674.696 279.535 674.855 279.234C675.014 278.933 675.088 278.594 675.067 278.254C675.047 277.914 674.933 277.586 674.739 277.306Z" fill="#171717"/>
<path d="M240.957 271.803C156.049 269.852 186.155 150.084 98.9971 154.452C98.5287 154.469 98.0837 154.661 97.7512 154.991L80.5316 172.205C80.2757 172.466 80.1024 172.796 80.0334 173.155C79.9644 173.514 80.0028 173.885 80.1436 174.222C80.2845 174.559 80.5217 174.848 80.8255 175.051C81.1293 175.254 81.4863 175.363 81.8519 175.365C165.365 174.77 135.445 294.333 223.57 292.846C223.816 292.845 224.059 292.795 224.286 292.699C224.512 292.604 224.718 292.464 224.89 292.288L242.221 274.963C242.474 274.706 242.647 274.38 242.718 274.027C242.789 273.673 242.755 273.306 242.621 272.971C242.487 272.636 242.258 272.347 241.963 272.14C241.667 271.932 241.318 271.816 240.957 271.803Z" fill="#171717"/>
<path d="M278.148 234.644C193.222 232.785 223.328 112.925 136.17 117.275C135.701 117.306 135.26 117.504 134.924 117.832L117.723 135.027C117.461 135.287 117.282 135.619 117.209 135.981C117.137 136.343 117.173 136.719 117.315 137.06C117.457 137.401 117.697 137.692 118.005 137.896C118.312 138.1 118.674 138.208 119.043 138.206C202.575 137.611 172.636 257.174 260.78 255.687C261.267 255.663 261.729 255.465 262.081 255.129L279.413 237.804C279.666 237.547 279.838 237.221 279.909 236.867C279.98 236.514 279.946 236.147 279.812 235.812C279.678 235.477 279.449 235.188 279.154 234.98C278.858 234.773 278.509 234.656 278.148 234.644Z" fill="#171717"/>
<path d="M156.235 101.028C199.395 100.731 212.264 132.48 226.787 163.059C226.914 163.328 227.105 163.563 227.342 163.743C227.579 163.923 227.855 164.044 228.149 164.095C228.442 164.146 228.744 164.126 229.028 164.036C229.312 163.946 229.57 163.79 229.781 163.579L248.023 145.325C248.293 145.056 248.474 144.709 248.54 144.334C248.607 143.958 248.556 143.571 248.395 143.225C233.202 111.382 220.26 77.7736 173.343 80.1158C172.872 80.1371 172.426 80.3364 172.097 80.6734L154.896 97.8681C154.639 98.1302 154.465 98.4624 154.397 98.823C154.328 99.1836 154.368 99.5563 154.511 99.8943C154.655 100.232 154.895 100.52 155.201 100.722C155.508 100.924 155.868 101.03 156.235 101.028Z" fill="#171717"/>
<path d="M203.784 308.962C160.865 307.977 147.327 276.897 133.12 246.95C132.99 246.694 132.802 246.472 132.571 246.301C132.34 246.13 132.073 246.015 131.79 245.964C131.507 245.914 131.216 245.93 130.941 246.01C130.665 246.091 130.412 246.235 130.201 246.43L111.958 264.665C111.684 264.936 111.501 265.286 111.435 265.666C111.368 266.045 111.421 266.436 111.586 266.784C126.351 297.921 140.001 330.767 186.453 329.986C186.943 329.979 187.411 329.779 187.754 329.429L205.086 312.104C205.334 311.843 205.502 311.516 205.568 311.162C205.634 310.808 205.596 310.442 205.458 310.109C205.32 309.777 205.089 309.491 204.791 309.287C204.494 309.084 204.144 308.971 203.784 308.962Z" fill="#171717"/>
</svg>
